<svg width="30" height="32" viewBox="0 0 30 32" fill="none" xmlns="http://www.w3.org/2000/svg">
<path d="M15.0014 6.63635C11.6436 6.63635 11.2222 6.65103 9.90345 6.71105C8.58723 6.77132 7.68881 6.9797 6.90269 7.28544C6.08952 7.60123 5.39973 8.02366 4.71252 8.71113C4.02479 9.39834 3.60237 10.0881 3.28555 10.901C2.97904 11.6874 2.7704 12.5861 2.71116 13.9018C2.65217 15.2206 2.63672 15.6422 2.63672 19C2.63672 22.3577 2.65166 22.7779 2.71142 24.0966C2.77195 25.4129 2.98032 26.3113 3.28581 27.0974C3.60186 27.9106 4.02428 28.6004 4.71175 29.2876C5.3987 29.9753 6.08849 30.3988 6.90114 30.7145C7.68778 31.0203 8.58646 31.2287 9.90242 31.2889C11.2212 31.3489 11.6423 31.3636 14.9998 31.3636C18.3579 31.3636 18.778 31.3489 20.0968 31.2889C21.413 31.2287 22.3124 31.0203 23.0991 30.7145C23.912 30.3988 24.6007 29.9753 25.2877 29.2876C25.9754 28.6004 26.3978 27.9106 26.7146 27.0977C27.0186 26.3113 27.2272 25.4126 27.289 24.0969C27.3483 22.7781 27.3637 22.3577 27.3637 19C27.3637 15.6422 27.3483 15.2208 27.289 13.9021C27.2272 12.5858 27.0186 11.6874 26.7146 10.9013C26.3978 10.0881 25.9754 9.39834 25.2877 8.71113C24.5999 8.0234 23.9122 7.60097 23.0983 7.28544C22.3101 6.9797 21.4112 6.77132 20.0949 6.71105C18.7762 6.65103 18.3563 6.63635 14.9975 6.63635H15.0014ZM13.8923 8.86438C14.2214 8.86387 14.5887 8.86438 15.0014 8.86438C18.3025 8.86438 18.6937 8.87623 19.9973 8.93547C21.2028 8.9906 21.857 9.19202 22.2928 9.36125C22.8698 9.58534 23.2812 9.85322 23.7136 10.2859C24.1464 10.7187 24.4142 11.1308 24.6388 11.7078C24.8081 12.1431 25.0097 12.7973 25.0646 14.0028C25.1239 15.3061 25.1367 15.6976 25.1367 18.9972C25.1367 22.2967 25.1239 22.6882 25.0646 23.9916C25.0095 25.197 24.8081 25.8512 24.6388 26.2866C24.4147 26.8635 24.1464 27.2744 23.7136 27.7068C23.2809 28.1396 22.8701 28.4074 22.2928 28.6315C21.8575 28.8015 21.2028 29.0024 19.9973 29.0576C18.694 29.1168 18.3025 29.1297 15.0014 29.1297C11.7 29.1297 11.3088 29.1168 10.0054 29.0576C8.79999 29.0019 8.14575 28.8005 7.70967 28.6313C7.1327 28.4072 6.72058 28.1393 6.28785 27.7066C5.85513 27.2738 5.58725 26.8627 5.36264 26.2855C5.19342 25.8502 4.99173 25.196 4.93687 23.9905C4.87763 22.6872 4.86578 22.2957 4.86578 18.9941C4.86578 15.6925 4.87763 15.303 4.93687 13.9997C4.99199 12.7942 5.19342 12.14 5.36264 11.7042C5.58673 11.1272 5.85513 10.7151 6.28785 10.2823C6.72058 9.84961 7.1327 9.58173 7.70967 9.35713C8.14549 9.18713 8.79999 8.98622 10.0054 8.93084C11.146 8.87932 11.588 8.86387 13.8923 8.86129V8.86438ZM21.601 10.9173C20.7819 10.9173 20.1174 11.581 20.1174 12.4004C20.1174 13.2195 20.7819 13.884 21.601 13.884C22.4201 13.884 23.0846 13.2195 23.0846 12.4004C23.0846 11.5813 22.4201 10.9167 21.601 10.9167V10.9173ZM15.0014 12.6507C11.495 12.6507 8.65214 15.4936 8.65214 19C8.65214 22.5064 11.495 25.3479 15.0014 25.3479C18.5078 25.3479 21.3496 22.5064 21.3496 19C21.3496 15.4936 18.5075 12.6507 15.0011 12.6507H15.0014ZM15.0014 14.8788C17.2773 14.8788 19.1226 16.7238 19.1226 19C19.1226 21.2759 17.2773 23.1212 15.0014 23.1212C12.7252 23.1212 10.8802 21.2759 10.8802 19C10.8802 16.7238 12.7252 14.8788 15.0014 14.8788Z" fill="white"/>
</svg>
