<svg width="32" height="32" viewBox="0 0 32 32" fill="none" xmlns="http://www.w3.org/2000/svg">
<path fill-rule="evenodd" clip-rule="evenodd" d="M28.2782 28.2778H23.2328V19.6844C23.2328 17.3283 22.3376 16.0117 20.4727 16.0117C18.444 16.0117 17.3841 17.3818 17.3841 19.6844V28.2778H12.5217V11.9075H17.3841V14.1126C17.3841 14.1126 18.8461 11.4073 22.32 11.4073C25.7923 11.4073 28.2782 13.5277 28.2782 17.9131V28.2778ZM6.72096 9.76391C5.06474 9.76391 3.72266 8.41129 3.72266 6.7431C3.72266 5.0749 5.06474 3.72229 6.72096 3.72229C8.37718 3.72229 9.71846 5.0749 9.71846 6.7431C9.71846 8.41129 8.37718 9.76391 6.72096 9.76391ZM4.21025 28.2778H9.28043V11.9075H4.21025V28.2778Z" fill="white"/>
</svg>
