<svg width="34" height="34" viewBox="0 0 34 34" fill="none" xmlns="http://www.w3.org/2000/svg">
<g clip-path="url(#clip0_706_15205)">
<rect width="34" height="34" rx="8" fill="#32376F"/>
<path fill-rule="evenodd" clip-rule="evenodd" d="M29.2782 29.2778H24.2328V20.6843C24.2328 18.3283 23.3376 17.0116 21.4727 17.0116C19.444 17.0116 18.3841 18.3818 18.3841 20.6843V29.2778H13.5217V12.9074H18.3841V15.1125C18.3841 15.1125 19.8461 12.4073 23.32 12.4073C26.7923 12.4073 29.2782 14.5277 29.2782 18.9131V29.2778ZM7.72096 10.7638C6.06474 10.7638 4.72266 9.41123 4.72266 7.74304C4.72266 6.07484 6.06474 4.72223 7.72096 4.72223C9.37718 4.72223 10.7185 6.07484 10.7185 7.74304C10.7185 9.41123 9.37718 10.7638 7.72096 10.7638ZM5.21025 29.2778H10.2804V12.9074H5.21025V29.2778Z" fill="white"/>
</g>
<defs>
<clipPath id="clip0_706_15205">
<rect width="34" height="34" fill="white"/>
</clipPath>
</defs>
</svg>
