<svg width="216" height="43" viewBox="0 0 216 43" fill="none" xmlns="http://www.w3.org/2000/svg">
<g clip-path="url(#clip0_38_704)">
<path fill-rule="evenodd" clip-rule="evenodd" d="M74.9086 8.62581C74.8547 8.19437 74.6946 8.08831 74.2545 8.08831H68.9633C68.6488 8.08831 68.3924 8.17072 68.2711 8.63942C67.6084 11.0188 65.0256 20.2896 65.0256 20.2896C64.6393 21.7272 64.3384 23.0602 64.1223 24.2864C64.0735 23.9804 64.0196 23.6851 63.9586 23.4028C63.8983 23.119 63.838 22.8309 63.7784 22.5363C63.718 22.241 63.6448 21.9236 63.5608 21.581C63.4768 21.2399 63.3734 20.845 63.2535 20.3963C63.2535 20.3963 60.7382 10.9865 60.1056 8.62294C59.934 8.09404 59.636 8.08831 59.2892 8.08831H53.9887C53.5643 8.08831 53.4638 8.32051 53.4365 8.65949C53.1184 11.9855 51.5079 28.8272 51.1934 32.1117C51.1597 32.5223 51.3973 32.6585 51.8023 32.6664H55.4951C55.8843 32.6664 56.1457 32.5868 56.2024 32.1389C56.3661 29.7223 57.0339 19.8295 57.0339 19.8295C57.082 19.0741 57.1186 18.3323 57.1423 17.6013C57.1897 16.9184 57.2148 16.2347 57.2148 15.5502C57.3347 16.2103 57.4913 16.9184 57.6851 17.6723C57.8776 18.4499 58.0585 19.1458 58.2273 19.7585C58.2273 19.7585 60.9895 29.7187 61.6609 32.1404C61.7722 32.5044 61.9359 32.6664 62.3301 32.6664H65.4801C65.9878 32.6492 66.1141 32.5904 66.2606 32.1576C66.9865 29.703 70.087 19.2282 70.087 19.2282C70.3031 18.4728 70.4783 17.8307 70.6104 17.3003C70.7426 16.7693 70.8811 16.1508 71.0269 15.4435C71.0269 16.1042 71.0449 16.7585 71.0808 17.4064C71.1167 18.055 71.159 18.7681 71.2071 19.5464C71.2071 19.5464 71.9855 29.9509 72.1162 32.2292C72.1391 32.6377 72.3488 32.6657 72.6453 32.6657H76.6139C76.8688 32.6657 77.0986 32.5496 77.0526 32.1382C76.6936 28.9161 75.2059 11.8766 74.9086 8.62581ZM94.3285 14.5598H90.3449C89.9112 14.5598 89.8214 14.6293 89.7087 15.0142C89.1041 16.889 87.067 23.1892 87.067 23.1892C86.922 23.6142 86.7834 24.0621 86.6513 24.5329C86.5177 25.0052 86.4158 25.3944 86.344 25.7011C86.2952 25.9125 86.2348 26.1841 86.163 26.5131C86.0905 26.8449 86.0237 27.1559 85.9641 27.4512C85.9038 27.7458 85.8557 28.0052 85.8198 28.2302C85.7832 28.4545 85.7652 28.5778 85.7652 28.6015L84.7894 24.8526C84.7894 24.8526 82.3711 16.9062 81.727 14.7906C81.6028 14.3921 81.3379 14.3126 81.0068 14.3427C80.059 14.4502 78.1613 14.668 77.2027 14.777C76.746 14.8286 76.6778 15.0629 76.7992 15.3696C77.8102 18.3187 82.7287 32.6678 82.7287 32.6678H83.9587C83.8373 32.9273 83.7411 33.1516 83.6693 33.3408C83.5961 33.5293 83.5243 33.6998 83.4517 33.8532C83.3785 34.0058 83.301 34.1535 83.2162 34.2947C83.1315 34.4358 83.0295 34.6007 82.9089 34.7899C82.4982 35.4263 82.0415 35.9208 81.5346 36.2748C81.1734 36.5342 80.7146 36.7636 80.1603 36.9657C79.8063 37.0918 79.4573 37.2086 79.1134 37.3118C78.7321 37.4437 78.6761 37.7461 78.8319 38.0364C79.1586 38.6484 79.6763 39.6166 79.9707 40.1685C80.1344 40.4945 80.459 40.5619 80.757 40.4996C81.3967 40.3806 82.0114 40.2165 82.6002 40.0065C83.3598 39.7349 84.0527 39.3744 84.6796 38.9272C85.0171 38.6921 85.3301 38.4076 85.6195 38.0779C85.9089 37.7483 86.1918 37.3534 86.4689 36.894C86.7461 36.4346 87.0297 35.8792 87.3191 35.2328C87.6077 34.5828 87.9093 33.8224 88.2231 32.9502C88.2231 32.9502 93.6342 18.1546 94.7493 15.1059C94.9331 14.5892 94.6509 14.5598 94.3285 14.5598ZM112.893 8.08831H108.77C108.286 8.08831 108.214 8.23164 108.214 8.65017V17.6372H100.983V8.65017C100.983 8.13131 100.739 8.07111 100.254 8.08831H96.5609C96.031 8.08831 95.9563 8.26174 95.9563 8.66809V32.1031C95.9563 32.5352 96.1595 32.6671 96.423 32.6671H100.438C100.732 32.6671 100.983 32.6026 100.983 32.121V21.7043H108.213V32.1124C108.213 32.4944 108.467 32.6664 108.777 32.6664H112.857C113.2 32.6664 113.348 32.4765 113.348 32.1389V8.63154C113.348 8.18291 113.196 8.08831 112.893 8.08831ZM142.299 14.2065C142.071 14.1599 141.775 14.1355 141.414 14.1355C140.497 14.1355 139.678 14.395 138.955 14.9131C138.232 15.432 137.604 16.034 137.074 16.717C137.002 15.7502 136.75 14.8909 136.315 14.1355L131.977 15.2679C132.17 15.786 132.333 16.4934 132.465 17.3892C132.598 18.2858 132.664 19.3457 132.664 20.5712V32.1382C132.664 32.3804 132.785 32.6657 133.179 32.6657H136.973C137.283 32.6657 137.508 32.5768 137.508 32.1382V19.8653C138.4 18.8519 139.389 18.3452 140.473 18.3452C140.725 18.3452 140.971 18.3488 141.215 18.4047C141.662 18.4714 141.943 18.5409 142.101 18.0213C142.347 17.2552 142.744 16.0146 142.988 15.2557C143.204 14.5777 142.87 14.3527 142.299 14.2065ZM148.472 14.2058C147.553 14.3484 145.484 14.6644 144.551 14.8071C144.106 14.8837 144.08 15.0206 144.08 15.3059V32.1762C144.08 32.5653 144.313 32.6671 144.594 32.6671H148.499C148.837 32.6671 148.925 32.5747 148.925 32.2041V14.5999C148.925 14.1649 148.774 14.1592 148.472 14.2058ZM146.575 6.63921C145.731 6.63921 145.015 6.92229 144.425 7.48774C143.834 8.05319 143.54 8.74835 143.54 9.57467C143.54 10.4003 143.828 11.0954 144.406 11.6609C144.985 12.2271 145.684 12.5101 146.504 12.5101C147.347 12.5101 148.058 12.2271 148.637 11.6609C149.216 11.0947 149.504 10.4003 149.504 9.57467C149.504 8.74907 149.221 8.05319 148.655 7.48774C148.087 6.92157 147.394 6.63921 146.575 6.63921ZM161.449 29.8485C161.378 29.5417 161.07 29.5288 160.865 29.5819C160.657 29.6363 160.479 29.68 160.332 29.7152C160.079 29.7739 159.844 29.8033 159.626 29.8033C158.783 29.8033 158.223 29.6091 157.945 29.2207C157.668 28.8301 157.53 28.0589 157.53 26.9037V17.8142H160.639C160.639 17.8142 161.267 16.1544 161.624 15.2048C161.801 14.7053 161.495 14.5598 161.224 14.5598H157.529C157.529 13.641 157.553 12.7029 157.602 11.749C157.631 11.165 157.67 10.606 157.717 10.0706C157.807 9.19269 157.186 9.25647 156.796 9.32814C155.355 9.68074 152.901 10.2806 152.901 10.2806C152.806 10.9643 152.751 11.6243 152.739 12.2607C152.726 12.8979 152.721 13.664 152.721 14.5598H150.877V17.8142H152.721V27.6454C152.721 28.0704 152.727 28.418 152.739 28.6882C152.751 28.9605 152.762 29.1906 152.775 29.3783C152.787 29.5675 152.817 29.7445 152.866 29.9094C152.914 30.0735 152.974 30.2512 153.046 30.4397C153.335 31.2417 153.932 31.8838 154.835 32.3661C155.739 32.8491 156.805 33.0921 158.035 33.0921C159.206 33.0921 160.405 32.8649 161.635 32.4105C161.816 32.3331 161.946 32.2056 161.901 31.9282C161.787 31.4 161.569 30.4024 161.449 29.8485ZM177.941 29.8212C177.711 29.5496 177.536 29.2608 177.416 28.9541C177.296 28.648 177.223 28.3119 177.2 27.9464C177.175 27.5809 177.163 27.1502 177.163 26.655L177.271 20.5719V19.3342C177.271 19.0046 177.253 18.7222 177.217 18.485C177.181 18.2492 177.144 18.0428 177.109 17.8665C177.072 17.6888 177.018 17.5067 176.947 17.3175C176.584 16.3042 175.891 15.5259 174.867 14.9834C173.842 14.4416 172.547 14.1699 170.981 14.1699C170.136 14.1699 169.311 14.2531 168.503 14.4179C167.696 14.5827 166.835 14.8536 165.919 15.2313C165.268 15.4908 164.725 15.7265 164.291 15.9387C164.039 16.0612 163.778 16.2017 163.51 16.3565C163.071 16.6281 163.117 16.9585 163.24 17.2473C163.612 17.8615 164.223 18.867 164.612 19.5084C164.897 19.9456 165.229 19.9083 165.598 19.722C166.38 19.2482 167.128 18.8713 167.834 18.5903C168.725 18.2363 169.557 18.0593 170.329 18.0593C171.22 18.0593 171.806 18.2542 172.082 18.6427C172.359 19.0318 172.499 19.7334 172.499 20.7475V21.49C172.305 21.467 172.124 21.4549 171.955 21.4549H171.413C168.448 21.4549 166.224 21.9558 164.742 22.9584C163.26 23.961 162.519 25.5348 162.519 27.6798C162.519 29.4951 163.061 30.8926 164.146 31.8702C165.231 32.8484 166.809 33.3393 168.882 33.3393C170.425 33.3393 171.667 33.0082 172.607 32.3475C172.799 32.2307 172.986 32.0888 173.168 31.9232C173.349 31.7591 173.535 31.5814 173.727 31.3943C173.968 31.8652 174.323 32.2901 174.794 32.6657C175.071 32.8886 175.366 33.0799 175.669 33.2598C176.142 33.54 176.474 33.4354 176.841 33.0355C177.338 32.4901 178.083 31.6623 178.504 31.1299C178.679 30.9084 178.779 30.6017 178.464 30.3401C178.254 30.1645 178.081 29.9875 177.941 29.8212ZM172.354 28.6359C171.992 29.0379 171.595 29.3432 171.161 29.5561C170.728 29.7682 170.281 29.8735 169.824 29.8735C169.197 29.8735 168.685 29.6557 168.287 29.2199C167.889 28.7828 167.69 28.2116 167.69 27.5042C167.69 26.4192 168.022 25.6889 168.685 25.3112C169.348 24.9343 170.523 24.7451 172.211 24.7451H172.427L172.354 28.6359ZM195.241 17.8844C195.915 17.8844 196.518 17.7791 197.049 17.5669C197.427 17.415 197.806 17.1979 198.185 16.9133C198.498 16.7012 198.533 16.335 198.295 16.029C197.961 15.5338 197.454 14.7798 197.083 14.2301C196.808 13.7779 196.577 13.6425 196.087 13.96C195.68 14.2545 195.247 14.4967 194.788 14.6845C194.124 14.9554 193.456 15.0909 192.782 15.0909C192.468 15.0909 192.136 15.0557 191.786 14.9848C191.437 14.9138 191.009 14.8207 190.504 14.7017C189.829 14.5376 189.237 14.4193 188.731 14.3484C188.226 14.2774 187.706 14.2423 187.177 14.2423C185.995 14.2423 184.923 14.39 183.959 14.6845C182.995 14.9798 182.176 15.3919 181.5 15.9222C180.826 16.4525 180.301 17.0961 179.928 17.8486C179.554 18.6047 179.368 19.441 179.368 20.3605C179.368 23.048 180.693 24.7229 183.344 25.3822C182.573 25.5721 181.964 25.7842 181.519 26.0193C181.073 26.2551 180.735 26.5031 180.507 26.7618C180.278 27.0212 180.127 27.2921 180.054 27.5752C179.983 27.859 179.947 28.1414 179.947 28.4244C179.947 29.0379 180.072 29.5446 180.326 29.9452C180.58 30.3473 180.923 30.6289 181.358 30.7945C182.201 31.1478 183.683 31.337 185.804 31.3592L187.864 31.3965C188.829 31.4187 189.637 31.5785 190.287 31.8723C190.938 32.1676 191.264 32.7266 191.264 33.5522C191.264 33.9299 191.155 34.2789 190.938 34.5964C190.72 34.9146 190.431 35.1805 190.07 35.3912C189.684 35.6269 189.238 35.7868 188.732 35.8692C188.226 35.9516 187.659 35.9932 187.033 35.9932C185.9 35.9932 185.038 35.8047 184.447 35.427C183.857 35.05 183.562 34.4946 183.562 33.765C183.562 33.5056 183.575 33.2992 183.598 33.1458C183.622 32.9925 183.683 32.5417 183.241 32.599H179.296C179.199 32.7868 179.102 33.0168 179.007 33.2885C178.911 33.5586 178.862 33.9413 178.862 34.4373C178.862 35.6635 179.369 36.7363 180.381 37.6558C181.225 38.4098 182.272 38.9229 183.527 39.1938C184.779 39.4654 186.069 39.6001 187.396 39.6001C188.841 39.6001 190.215 39.4246 191.518 39.0705C192.819 38.7172 193.879 38.1159 194.699 37.2667C195.687 36.2282 196.181 34.9791 196.181 33.5178C196.181 31.9153 195.65 30.6303 194.59 29.6636C193.939 29.0752 193.191 28.6617 192.349 28.4252C191.504 28.1894 190.384 28.0597 188.985 28.036L186.383 28.0002C185.852 28.0002 185.587 27.8597 185.587 27.5759C185.587 27.3172 185.75 27.0757 186.076 26.8506C186.401 26.6263 186.876 26.3733 187.503 26.091C187.696 26.1139 187.829 26.1261 187.901 26.1261H188.227C189.215 26.1261 190.126 25.9914 190.956 25.7197C191.788 25.4488 192.512 25.0776 193.126 24.6053C193.741 24.133 194.218 23.5676 194.554 22.9075C194.891 22.2475 195.059 21.528 195.059 20.7504C195.059 20.1369 194.97 19.5951 194.789 19.1235C194.608 18.652 194.338 18.2041 193.974 17.7798C194.119 17.8042 194.306 17.8264 194.534 17.85C194.765 17.8722 194.999 17.8844 195.241 17.8844ZM187.106 22.9778C186.262 22.9778 185.574 22.7785 185.045 22.3765C184.515 21.9759 184.249 21.3158 184.249 20.3963C184.249 19.5478 184.503 18.8878 185.01 18.4155C185.516 17.9439 186.225 17.7081 187.143 17.7081C188.059 17.7081 188.774 17.9439 189.293 18.4155C189.812 18.8878 190.071 19.5478 190.071 20.3963C190.07 22.1171 189.082 22.9778 187.106 22.9778ZM212.433 25.0998C213.292 25.0998 213.173 24.0033 213.173 24.0033C213.173 22.0934 212.974 20.5089 212.577 19.2468C212.179 17.9855 211.557 16.9305 210.714 16.0813C210.111 15.4685 209.34 14.997 208.4 14.6659C207.46 14.3362 206.448 14.1707 205.364 14.1707C204.135 14.1707 203.049 14.3713 202.11 14.7727C201.17 15.174 200.313 15.786 199.543 16.6102C198.723 17.5067 198.132 18.5208 197.771 19.6532C197.409 20.7841 197.228 22.1636 197.228 23.7898C197.228 25.2059 197.432 26.4902 197.843 27.6447C198.252 28.8 198.837 29.784 199.596 30.5981C200.355 31.4115 201.277 32.0429 202.362 32.4908C203.447 32.938 204.651 33.1623 205.978 33.1623C208.366 33.1623 210.553 32.4313 212.542 30.9693C212.833 30.7773 212.871 30.4877 212.673 30.2254C212.345 29.7309 211.802 28.9139 211.442 28.3714C211.137 27.8862 210.836 28.0124 210.589 28.1908C209.242 29.1476 207.837 29.6256 206.375 29.6256C205.122 29.6256 204.157 29.2486 203.484 28.494C202.809 27.7393 202.471 26.655 202.471 25.241V25.0998H212.433ZM202.543 21.5631C202.543 20.2896 202.797 19.317 203.303 18.6455C203.81 17.9733 204.52 17.6372 205.437 17.6372C206.377 17.6372 207.088 17.9912 207.571 18.6986C207.787 19.0289 207.938 19.3937 208.022 19.7943C208.106 20.1957 208.149 20.7375 208.149 21.4212V21.634H202.544V21.5631H202.543ZM130.27 19.2468C129.871 17.9855 129.251 16.9305 128.408 16.0813C127.805 15.4685 127.034 14.997 126.094 14.6659C125.154 14.3362 124.141 14.1707 123.057 14.1707C121.827 14.1707 120.742 14.3713 119.803 14.7727C118.862 15.174 118.007 15.786 117.236 16.6102C116.416 17.5067 115.826 18.5208 115.464 19.6532C115.103 20.7841 114.922 22.1636 114.922 23.7898C114.922 25.2059 115.126 26.4902 115.536 27.6447C115.946 28.8 116.531 29.784 117.289 30.5981C118.049 31.4115 118.97 32.0429 120.056 32.4908C121.141 32.938 122.345 33.1623 123.671 33.1623C126.059 33.1623 128.246 32.4313 130.235 30.9693C130.526 30.7773 130.565 30.4877 130.367 30.2254C130.038 29.7309 129.495 28.9139 129.136 28.3714C128.83 27.8862 128.53 28.0124 128.282 28.1908C126.935 29.1476 125.531 29.6256 124.07 29.6256C122.816 29.6256 121.852 29.2486 121.177 28.494C120.503 27.7393 120.165 26.655 120.165 25.241V25.0998H130.128C130.986 25.0998 130.867 24.0033 130.867 24.0033C130.867 22.0934 130.668 20.5089 130.27 19.2468ZM125.842 21.634H120.237V21.5631C120.237 20.2896 120.491 19.317 120.996 18.6455C121.503 17.9733 122.213 17.6372 123.13 17.6372C124.071 17.6372 124.781 17.9912 125.264 18.6986C125.48 19.0289 125.632 19.3937 125.715 19.7943C125.8 20.1957 125.842 20.7375 125.842 21.4212V21.634H125.842ZM25.7327 2.58359C34.7318 3.10747 41.8676 11.0668 41.8676 20.1806C41.8676 29.2938 34.7318 37.2516 25.7327 37.7769C38.7693 38.9215 46.8335 29.8227 46.8335 20.1806C46.8335 10.5379 38.8016 1.45914 25.7327 2.58359ZM4.78695 20.1806C4.78695 11.0668 11.9228 3.10747 20.9211 2.58359C8.02096 1.39607 -0.179688 10.5379 -0.179688 20.1806C-0.179688 29.8227 8.21268 39.1443 20.9219 37.7769C11.9228 37.2516 4.78695 29.2938 4.78695 20.1806ZM40.4768 20.1806C40.3834 10.7271 32.7981 3.06304 23.3273 3.06304C13.8564 3.06304 6.17777 10.7271 6.17777 20.1806C6.17777 28.4445 12.0448 35.341 19.8024 36.9012C22.3967 37.4236 22.7557 30.8296 22.0449 26.4586C22.0327 26.4579 21.2629 26.4135 21.0059 26.4034C20.4731 26.3819 19.9697 26.989 19.6445 27.1079C19.0894 27.3086 18.9839 26.7582 18.5832 26.7582C18.2321 26.7582 17.7611 27.3029 16.4657 27.057C15.1568 26.8091 14.7324 25.6266 14.7324 25.6266L14.3397 25.4209C13.0027 25.0884 12.9302 23.6299 12.9208 23.5482C12.8461 22.8344 14.0934 22.2955 13.7423 22.0733C12.2294 21.1166 12.7169 20.3634 12.732 20.3247C12.9244 19.8173 13.659 18.7208 13.3897 18.5495C12.648 18.0772 13.8658 15.3317 14.9363 14.5691C15.0993 13.6998 16.0378 12.2787 16.9447 11.9784C16.8951 10.9922 18.2752 10.4332 18.2752 10.4332C19.2424 10.1229 18.5653 9.32599 20.4178 9.45284C20.8515 9.48222 20.8393 8.99059 21.9142 8.96694C22.2258 8.95906 22.5676 8.71754 23.5197 8.71754C25.1906 8.64372 25.113 9.77176 25.6724 9.57969C26.3775 9.33746 28.7297 10.4906 28.9746 12.8613C30.0308 12.7796 32.8039 15.8269 32.7234 18.0751C34.5458 20.119 32.0614 22.054 31.9616 22.4281C32.0327 22.6402 32.4003 23.569 32.2539 24.2878C32.0815 25.1306 31.0124 26.0501 30.9686 26.0809C30.2182 26.6199 29.6639 27.229 28.7721 27.0613C27.8509 26.8893 28.0254 26.0422 27.7518 25.8373C27.1601 26.3619 26.269 26.8076 25.1281 26.7159C24.9938 26.6944 24.4984 26.6428 24.4345 26.6364C23.8873 29.8563 23.9649 37.0481 26.2497 37.0438C33.1378 35.9932 40.5672 29.3733 40.4768 20.1806Z" fill="black"/>
</g>
<defs>
<clipPath id="clip0_38_704">
<rect width="216" height="43" fill="white"/>
</clipPath>
</defs>
</svg>
