<svg width="34" height="34" viewBox="0 0 34 34" fill="none" xmlns="http://www.w3.org/2000/svg">
<rect width="34.001" height="34.001" rx="8" fill="url(#paint0_radial_706_15209)"/>
<rect width="34.001" height="34.001" rx="8" fill="url(#paint1_radial_706_15209)"/>
<path d="M17.0004 4.63635C13.6427 4.63635 13.2213 4.65103 11.9025 4.71105C10.5863 4.77132 9.68783 4.9797 8.90171 5.28544C8.08855 5.60123 7.39876 6.02366 6.71155 6.71113C6.02382 7.39834 5.60139 8.08813 5.28458 8.90103C4.97806 9.68741 4.76942 10.5861 4.71018 11.9018C4.6512 13.2206 4.63574 13.6422 4.63574 17C4.63574 20.3577 4.65068 20.7779 4.71044 22.0966C4.77097 23.4129 4.97935 24.3113 5.28483 25.0974C5.60088 25.9106 6.0233 26.6004 6.71077 27.2876C7.39773 27.9753 8.08751 28.3988 8.90017 28.7145C9.6868 29.0203 10.5855 29.2287 11.9014 29.2889C13.2202 29.3489 13.6414 29.3636 16.9989 29.3636C20.3569 29.3636 20.777 29.3489 22.0958 29.2889C23.412 29.2287 24.3114 29.0203 25.0981 28.7145C25.911 28.3988 26.5997 27.9753 27.2867 27.2876C27.9744 26.6004 28.3968 25.9106 28.7137 25.0977C29.0176 24.3113 29.2262 23.4126 29.2881 22.0969C29.3473 20.7781 29.3628 20.3577 29.3628 17C29.3628 13.6422 29.3473 13.2208 29.2881 11.9021C29.2262 10.5858 29.0176 9.68741 28.7137 8.90129C28.3968 8.08813 27.9744 7.39834 27.2867 6.71113C26.599 6.0234 25.9112 5.60097 25.0973 5.28544C24.3091 4.9797 23.4102 4.77132 22.094 4.71105C20.7752 4.65103 20.3553 4.63635 16.9965 4.63635H17.0004ZM15.8913 6.86438C16.2205 6.86387 16.5878 6.86438 17.0004 6.86438C20.3015 6.86438 20.6928 6.87623 21.9963 6.93547C23.2018 6.9906 23.856 7.19202 24.2919 7.36125C24.8688 7.58534 25.2802 7.85322 25.7127 8.28594C26.1454 8.71867 26.4133 9.13079 26.6379 9.70776C26.8071 10.1431 27.0088 10.7973 27.0636 12.0028C27.1229 13.3061 27.1358 13.6976 27.1358 16.9972C27.1358 20.2967 27.1229 20.6882 27.0636 21.9916C27.0085 23.197 26.8071 23.8512 26.6379 24.2866C26.4138 24.8635 26.1454 25.2744 25.7127 25.7068C25.2799 26.1396 24.8691 26.4074 24.2919 26.6315C23.8566 26.8015 23.2018 27.0024 21.9963 27.0576C20.693 27.1168 20.3015 27.1297 17.0004 27.1297C13.6991 27.1297 13.3078 27.1168 12.0045 27.0576C10.799 27.0019 10.1448 26.8005 9.7087 26.6313C9.13173 26.4072 8.71961 26.1393 8.28688 25.7066C7.85415 25.2738 7.58627 24.8627 7.36167 24.2855C7.19244 23.8502 6.99076 23.196 6.93589 21.9905C6.87665 20.6872 6.8648 20.2957 6.8648 16.9941C6.8648 13.6925 6.87665 13.303 6.93589 11.9997C6.99101 10.7942 7.19244 10.14 7.36167 9.70416C7.58576 9.12719 7.85415 8.71506 8.28688 8.28234C8.71961 7.84961 9.13173 7.58173 9.7087 7.35713C10.1445 7.18713 10.799 6.98622 12.0045 6.93084C13.145 6.87932 13.587 6.86387 15.8913 6.86129V6.86438ZM23.6 8.91726C22.7809 8.91726 22.1164 9.58103 22.1164 10.4004C22.1164 11.2195 22.7809 11.884 23.6 11.884C24.4191 11.884 25.0837 11.2195 25.0837 10.4004C25.0837 9.58129 24.4191 8.91675 23.6 8.91675V8.91726ZM17.0004 10.6507C13.494 10.6507 10.6512 13.4936 10.6512 17C10.6512 20.5064 13.494 23.3479 17.0004 23.3479C20.5068 23.3479 23.3486 20.5064 23.3486 17C23.3486 13.4936 20.5065 10.6507 17.0002 10.6507H17.0004ZM17.0004 12.8788C19.2763 12.8788 21.1216 14.7238 21.1216 17C21.1216 19.2759 19.2763 21.1212 17.0004 21.1212C14.7242 21.1212 12.8792 19.2759 12.8792 17C12.8792 14.7238 14.7242 12.8788 17.0004 12.8788Z" fill="white"/>
<defs>
<radialGradient id="paint0_radial_706_15209" cx="0" cy="0" r="1" gradientUnits="userSpaceOnUse" gradientTransform="translate(9.03157 36.6198) rotate(-90) scale(33.6975 31.3414)">
<stop stop-color="#FFDD55"/>
<stop offset="0.1" stop-color="#FFDD55"/>
<stop offset="0.5" stop-color="#FF543E"/>
<stop offset="1" stop-color="#C837AB"/>
</radialGradient>
<radialGradient id="paint1_radial_706_15209" cx="0" cy="0" r="1" gradientUnits="userSpaceOnUse" gradientTransform="translate(-5.69535 2.44938) rotate(78.6806) scale(15.0629 62.0901)">
<stop stop-color="#3771C8"/>
<stop offset="0.128" stop-color="#3771C8"/>
<stop offset="1" stop-color="#6600FF" stop-opacity="0"/>
</radialGradient>
</defs>
</svg>
