<svg width="14" height="54" viewBox="0 0 14 54" fill="none" xmlns="http://www.w3.org/2000/svg">
<path d="M7.75 2C7.75 1.58579 7.41421 1.25 7 1.25C6.58579 1.25 6.25 1.58579 6.25 2L7.75 2ZM6.46967 52.5303C6.76256 52.8232 7.23743 52.8232 7.53033 52.5303L12.3033 47.7574C12.5962 47.4645 12.5962 46.9896 12.3033 46.6967C12.0104 46.4038 11.5355 46.4038 11.2426 46.6967L7 50.9393L2.75736 46.6967C2.46446 46.4038 1.98959 46.4038 1.6967 46.6967C1.4038 46.9896 1.4038 47.4645 1.6967 47.7574L6.46967 52.5303ZM6.25 2L6.25 52L7.75 52L7.75 2L6.25 2Z" fill="#DBDBDB"/>
</svg>
