<svg width="54" height="14" viewBox="0 0 54 14" fill="none" xmlns="http://www.w3.org/2000/svg">
<path d="M2 6.25C1.58579 6.25 1.25 6.58579 1.25 7C1.25 7.41421 1.58579 7.75 2 7.75L2 6.25ZM52.5303 7.53033C52.8232 7.23744 52.8232 6.76256 52.5303 6.46967L47.7574 1.6967C47.4645 1.40381 46.9896 1.40381 46.6967 1.6967C46.4038 1.98959 46.4038 2.46447 46.6967 2.75736L50.9393 7L46.6967 11.2426C46.4038 11.5355 46.4038 12.0104 46.6967 12.3033C46.9896 12.5962 47.4645 12.5962 47.7574 12.3033L52.5303 7.53033ZM2 7.75L52 7.75L52 6.25L2 6.25L2 7.75Z" fill="#DBDBDB"/>
</svg>
